HIERARCHY
ROOT root
{
	OFFSET 0.000000 0.000000 0.000000
	CHANNELS 6 Xposition Yposition Zposition Zrotation Yrotation Xrotation
	JOINT lhip
	{
		OFFSET 0.058581 -0.082280 -0.017664
		CHANNELS 3 Zrotation Yrotation Xrotation
		JOINT lknee
		{
			OFFSET 0.043451 -0.386469 0.008037
			CHANNELS 3 Zrotation Yrotation Xrotation
			JOINT lankle
			{
				OFFSET -0.014790 -0.426874 -0.037428
				CHANNELS 3 Zrotation Yrotation Xrotation
				JOINT ltoe
				{
					OFFSET 0.041054 -0.060286 0.122042
					CHANNELS 3 Zrotation Yrotation Xrotation
					End Site
					{
						OFFSET 0.000000 0.000000 0.000000
					}
				}
			}
		}
	}
	JOINT rhip
	{
		OFFSET -0.060310 -0.090513 -0.013543
		CHANNELS 3 Zrotation Yrotation Xrotation
		JOINT rknee
		{
			OFFSET -0.043257 -0.383688 -0.004843
			CHANNELS 3 Zrotation Yrotation Xrotation
			JOINT rankle
			{
				OFFSET 0.019056 -0.420046 -0.034562
				CHANNELS 3 Zrotation Yrotation Xrotation
				JOINT rtoe
				{
					OFFSET -0.034840 -0.062106 0.130323
					CHANNELS 3 Zrotation Yrotation Xrotation
					End Site
					{
						OFFSET 0.000000 0.000000 0.000000
					}
				}
			}
		}
	}
	JOINT lowerback
	{
		OFFSET 0.004439 0.124404 -0.038385
		CHANNELS 3 Zrotation Yrotation Xrotation
		JOINT upperback
		{
			OFFSET 0.004488 0.137956 0.026820
			CHANNELS 3 Zrotation Yrotation Xrotation
			JOINT chest
			{
				OFFSET -0.002265 0.056032 0.002855
				CHANNELS 3 Zrotation Yrotation Xrotation
				JOINT lowerneck
				{
					OFFSET -0.013390 0.211636 -0.033468
					CHANNELS 3 Zrotation Yrotation Xrotation
					JOINT upperneck
					{
						OFFSET 0.010113 0.088937 0.050410
						CHANNELS 3 Zrotation Yrotation Xrotation
						End Site
						{
							OFFSET 0.000000 0.000000 0.000000
						}
					}
				}
				JOINT lclavicle
				{
					OFFSET 0.071702 0.114000 -0.018898
					CHANNELS 3 Zrotation Yrotation Xrotation
					JOINT lshoulder
					{
						OFFSET 0.122921 0.045205 -0.019046
						CHANNELS 3 Zrotation Yrotation Xrotation
						JOINT lelbow
						{
							OFFSET 0.255332 -0.015649 -0.022946
							CHANNELS 3 Zrotation Yrotation Xrotation
							JOINT lwrist
							{
								OFFSET 0.265709 0.012698 -0.007375
								CHANNELS 3 Zrotation Yrotation Xrotation
								End Site
								{
									OFFSET 0.000000 0.000000 0.000000
								}
							}
						}
					}
				}
				JOINT rclavicle
				{
					OFFSET -0.082954 0.112472 -0.023707
					CHANNELS 3 Zrotation Yrotation Xrotation
					JOINT rshoulder
					{
						OFFSET -0.113228 0.046853 -0.008472
						CHANNELS 3 Zrotation Yrotation Xrotation
						JOINT relbow
						{
							OFFSET -0.260127 -0.014369 -0.031269
							CHANNELS 3 Zrotation Yrotation Xrotation
							JOINT rwrist
							{
								OFFSET -0.269108 0.006794 -0.006027
								CHANNELS 3 Zrotation Yrotation Xrotation
								End Site
								{
									OFFSET 0.000000 0.000000 0.000000
								}
							}
						}
					}
				}
			}
		}
	}
}
MOTION
Frames: 8
Frame Time: 0.033333
-0.178725 0.745026 1.026561 85.781521 -1.803849 85.668757 3.865427 0.296160 -20.055440 -2.090225 14.341162 41.893386 3.985167 18.328864 -12.518998 0.000000 -0.000000 0.000000 0.669419 0.345459 6.882732 3.745780 7.790081 5.585086 -0.479277 -3.894325 -15.609952 0.000000 -0.000000 0.000000 -2.158900 6.539601 3.743078 3.332416 -3.890519 10.178734 0.307486 -0.080922 -4.923862 1.409555 -9.320886 3.701681 3.887901 -7.869356 -7.476120 -21.977362 8.319292 4.951182 -58.994517 2.221060 18.628185 0.469279 -38.264355 17.718359 -13.867783 -13.225372 -0.064206 20.158466 -2.697874 1.010673 56.330457 -2.090324 10.047878 -7.804161 44.741510 -7.670333 3.108699 14.243338 -18.646834 
-0.139058 0.745475 1.022642 83.898029 -1.467546 85.555049 4.546482 1.461558 -21.725418 -3.073153 13.953548 31.743388 2.953228 18.207610 -11.494182 0.000000 -0.000000 0.000000 0.232303 -0.649280 11.027827 3.660326 9.404484 3.328930 0.811130 -2.648369 -16.656230 0.000000 -0.000000 0.000000 -1.399506 7.825178 3.755604 3.242820 -3.442641 10.004036 0.008577 0.689121 -4.231881 2.071617 -9.785112 2.520916 3.171019 -8.128088 -6.405535 -21.395746 10.073617 5.113536 -58.686521 5.312328 18.201702 -1.556883 -37.907306 20.537527 -11.345875 -13.591914 -1.843575 20.373231 -2.699959 1.416956 54.920876 0.660711 10.079221 -5.540773 48.166411 -6.539374 -0.056174 14.400300 -19.648983 
-0.099091 0.746416 1.015922 82.577872 -1.107081 85.780245 4.777818 2.323491 -22.963458 -3.677587 11.963880 20.366264 2.683750 17.549868 -10.944088 0.000000 -0.000000 0.000000 -0.333428 -1.557347 14.526046 3.558928 10.630128 1.615382 1.966641 -1.472988 -17.463539 0.000000 -0.000000 0.000000 -0.738844 8.647158 3.047039 3.098286 -3.319840 10.689823 -0.159062 1.139411 -3.892967 2.647855 -9.328720 1.820443 2.780544 -8.416123 -6.504777 -21.039127 12.005043 4.882588 -58.431416 8.315531 17.292506 -2.242141 -37.668849 21.926344 -11.710024 -13.042484 -1.136603 20.464932 -2.054490 1.683967 54.235169 3.887867 10.493836 -4.908492 49.779636 -7.019426 -1.545076 15.460967 -20.247569 
-0.057686 0.748000 1.007700 81.548151 -0.388144 85.685780 5.048615 3.450431 -23.646545 -3.834205 8.511140 10.254392 2.037566 16.384553 -10.813737 0.000000 -0.000000 0.000000 -0.807575 -2.591026 18.377269 3.606173 11.506214 0.150647 2.901113 -0.907647 -18.872683 0.000000 -0.000000 0.000000 0.255625 9.235232 3.069416 3.044664 -3.175891 10.429535 -0.143898 1.613269 -3.202687 2.496942 -9.651346 1.405528 2.609607 -8.205848 -6.407989 -21.018524 12.711831 4.917476 -58.440582 11.531927 16.292331 -2.158781 -36.622207 22.822581 -9.552432 -13.291421 -1.655028 20.616700 -1.098197 1.816173 53.203405 5.720076 10.074548 -4.018872 51.803125 -6.644954 -3.417524 15.558422 -20.883930 
-0.015781 0.750039 0.999031 80.219220 0.309940 86.268790 5.675998 4.053646 -24.999915 -3.297238 6.821888 3.807059 2.385303 14.025735 -9.184949 0.000000 -0.000000 0.000000 -2.215198 -4.236150 20.651160 4.126540 12.635208 0.315846 4.176189 1.378981 -19.434491 0.000000 -0.000000 0.000000 1.176148 10.176596 1.966849 3.027116 -3.157087 11.272199 -0.435455 1.920932 -3.060518 2.899102 -9.564094 0.680576 2.195993 -8.266514 -6.474005 -20.813193 13.837642 4.854444 -58.737421 13.964098 15.046042 -1.090699 -35.952472 22.521297 -12.335482 -11.753653 -1.138510 20.882602 -0.593570 2.011527 52.645243 8.221582 9.841812 -4.050197 52.821696 -7.439282 -1.170447 15.796939 -19.919195 
0.030293 0.753402 0.991401 79.277420 0.512114 86.205500 5.798876 4.036933 -25.699360 -3.320857 7.102558 1.810050 2.626577 13.697054 -9.147030 0.000000 -0.000000 0.000000 -3.660601 -4.042972 23.385127 4.316673 13.417905 1.105280 5.364123 2.337540 -19.527705 0.000000 -0.000000 0.000000 1.438372 10.857433 1.613362 3.049319 -3.068416 11.577417 -0.442082 2.183014 -2.884747 3.272644 -9.792893 0.573921 1.549453 -7.982473 -6.703796 -20.358428 14.598837 4.980734 -59.604610 16.271136 13.862799 0.455509 -34.926594 21.823851 -15.181953 -10.795195 -1.800515 20.920777 -0.215920 2.357516 52.325497 9.716322 9.745829 -4.138140 53.641366 -7.716144 1.402124 15.865981 -19.301674 
0.078428 0.757904 0.986308 78.750856 0.198707 86.033665 5.745229 2.688396 -26.174058 -3.604287 8.327222 4.715575 3.512358 13.714190 -9.107113 0.000000 -0.000000 0.000000 -5.303173 -3.367850 25.780933 4.265020 14.570273 2.809639 6.617822 3.324196 -18.677298 0.000000 -0.000000 0.000000 1.134484 11.631040 1.330664 3.067820 -3.143441 12.111465 -0.604409 2.279073 -2.997614 3.541228 -10.097594 0.798789 1.708314 -8.180737 -7.574965 -20.001035 15.570484 4.947787 -59.992770 17.499674 13.151061 2.227081 -33.797785 21.460140 -17.834218 -10.274196 -1.501455 21.465359 -0.114107 2.543488 52.100852 10.519851 9.968984 -5.268330 53.652348 -8.723825 4.143728 15.892185 -17.912479 
0.128694 0.762337 0.982680 77.694546 0.104512 86.650132 6.070678 2.088244 -27.311727 -3.943069 11.570958 10.636688 4.304463 13.159647 -6.562087 0.000000 -0.000000 0.000000 -6.989796 -3.013243 25.879133 4.661164 14.401621 6.855407 8.051863 5.141427 -16.155058 0.000000 -0.000000 0.000000 0.575172 12.464277 -0.110717 3.323197 -2.761464 12.562482 -0.808080 2.557391 -3.467339 4.077861 -10.430914 1.386329 1.271923 -8.929167 -7.457239 -18.887250 16.027255 5.400041 -60.906596 18.695263 12.962121 3.774484 -32.916850 21.115376 -18.835117 -10.341163 -2.758169 21.676980 -0.528016 3.236763 52.601854 10.210877 10.398822 -6.796284 53.414583 -9.455624 4.782443 15.837556 -17.037990 
